<svg xmlns="http://www.w3.org/2000/svg" width="216.563" height="101.094" viewBox="0 0 216.563 101.094">
  <defs>
    <style>
      .cls-1 {
        fill: #00aeff;
        fill-rule: evenodd;
      }
    </style>
  </defs>
  <path id="gopl.svg" class="cls-1" d="M40.325,175.441c19.954,0,32.509-8.3,32.509-20.4,0-10.313-8.071-14.572-22.084-14.572H42.343c-5.605,0-7.847-.9-7.847-3.363a3.534,3.534,0,0,1,1.345-3.251,28.07,28.07,0,0,0,6.278.785c12.555,0,22.645-5.381,22.645-18.383a10.909,10.909,0,0,0-1.345-5.605V110.2h8.52V96.3H51.087a28.913,28.913,0,0,0-8.968-1.345c-12.331,0-23.99,6.5-23.99,20.4a17.379,17.379,0,0,0,7.623,14.348v0.448c-3.811,2.69-6.278,6.726-6.278,10.537a11.056,11.056,0,0,0,5.157,9.64v0.448c-5.157,2.69-7.847,6.165-7.847,10.761C16.783,171.63,27.545,175.441,40.325,175.441Zm1.794-52.236c-3.587,0-6.053-2.466-6.053-7.846,0-5.156,2.466-7.623,6.054-7.623s6.054,2.467,6.054,7.623C48.172,120.739,45.706,123.205,42.118,123.205Zm1.345,40.354c-6.5,0-10.986-1.569-10.986-5.156,0-1.57.673-2.691,2.018-4.036,1.569,0.449,3.587.673,8.071,0.673h4.372c4.82,0,7.511.448,7.511,3.363C54.45,161.541,49.741,163.559,43.464,163.559Zm60.308-9.864c14.349,0,27.8-10.761,27.8-29.369s-13.452-29.368-27.8-29.368-27.8,10.761-27.8,29.368S89.423,153.7,103.772,153.7Zm0-15.469c-5.829,0-8.071-5.381-8.071-13.9s2.242-13.9,8.071-13.9,8.071,5.38,8.071,13.9S109.6,138.226,103.772,138.226Zm37.888,33.852h19.282V156.609l-0.673-8.519a17.574,17.574,0,0,0,12.555,5.6c11.883,0,23.317-10.985,23.317-30.266,0-17.262-8.519-28.471-21.747-28.471-5.605,0-11.1,2.69-15.246,6.5H158.7L157.354,96.3H141.66v75.775ZM168.116,138a10.29,10.29,0,0,1-7.174-2.691V114.686c2.466-2.914,4.708-4.035,7.622-4.035,5.157,0,7.848,3.811,7.848,13C176.412,134.415,172.6,138,168.116,138ZM223.94,153.7a23.848,23.848,0,0,0,9.417-1.57L231.115,138a6.926,6.926,0,0,1-2.018.224c-1.345,0-3.139-1.121-3.139-4.932V74.333H206.677v58.288C206.677,145.176,210.936,153.7,223.94,153.7Z" transform="translate(-16.781 -74.344)"/>
</svg>
